<?xml version="1.0" standalone="no"?>
<!DOCTYPE svg PUBLIC "-//W3C//DTD SVG 20010904//EN"
 "http://www.w3.org/TR/2001/REC-SVG-20010904/DTD/svg10.dtd">
<svg version="1.0" xmlns="http://www.w3.org/2000/svg"
 width="423.000000pt" height="423.000000pt" viewBox="0 0 423.000000 423.000000"
 preserveAspectRatio="xMidYMid meet">

<g transform="translate(0.000000,423.000000) scale(0.100000,-0.100000)"
fill="#000000" stroke="none">
<path d="M2215 3538 c-39 -21 -126 -114 -156 -164 -84 -148 -92 -380 -24 -710
6 -29 3 -33 -97 -105 -56 -42 -125 -91 -153 -109 -225 -152 -313 -273 -337
-462 -36 -288 115 -557 388 -692 127 -62 247 -79 438 -61 l73 7 14 -63 c24
-113 18 -149 -52 -294 -21 -44 -84 -96 -138 -114 -86 -28 -231 -5 -271 44 -8
11 -10 16 -5 13 18 -11 105 11 136 33 45 32 72 93 67 150 -9 94 -78 151 -189
157 -59 4 -74 1 -119 -24 -115 -63 -145 -164 -85 -284 29 -57 75 -100 145
-136 52 -28 62 -29 185 -29 125 0 132 1 197 32 87 41 169 118 198 186 20 46
22 62 16 162 -3 60 -9 128 -12 151 -6 39 -4 41 28 54 58 22 152 91 196 144
141 168 159 408 45 603 -32 55 -116 130 -185 165 -66 33 -201 53 -271 40 -26
-5 -49 -7 -51 -3 -2 3 -12 35 -21 70 l-16 63 75 73 c125 121 217 284 254 449
24 108 21 282 -6 379 -32 114 -96 229 -152 274 -19 15 -88 16 -115 1z m148
-282 c34 -31 41 -61 35 -147 -7 -91 -54 -188 -141 -290 -64 -75 -143 -146
-153 -136 -3 2 -10 59 -16 127 -17 185 5 292 82 399 52 72 143 94 193 47z
m-249 -973 c11 -71 8 -82 -26 -97 -50 -22 -143 -100 -176 -148 -104 -152 -71
-394 73 -530 81 -77 175 -111 183 -66 2 9 -5 19 -16 22 -73 24 -182 237 -182
359 0 94 62 197 139 232 23 10 43 16 45 14 4 -5 176 -752 176 -766 0 -5 -33
-14 -72 -20 -126 -17 -294 15 -389 75 -66 42 -150 129 -181 188 -68 127 -48
293 54 443 57 83 325 331 358 331 4 0 10 -17 14 -37z m236 -225 c52 -23 142
-123 179 -201 82 -171 77 -352 -12 -453 -38 -44 -94 -81 -104 -70 -8 7 -180
740 -177 747 5 9 72 -5 114 -23z"/>
</g>
</svg>
